<svg height="16" viewBox="0 0 16 16" width="16" xmlns="http://www.w3.org/2000/svg" xmlns:xlink="http://www.w3.org/1999/xlink"><linearGradient id="a" x1="50%" x2="50%" y1="0%" y2="100%"><stop offset="0" stop-color="#d7be74"/><stop offset="1" stop-color="#bb7f3c"/></linearGradient><linearGradient id="b" x1="8.086711%" x2="90.838067%" y1="2.520202%" y2="100%"><stop offset="0" stop-color="#daab62"/><stop offset=".257738019" stop-color="#fefdb9"/><stop offset=".503824944" stop-color="#daab62"/><stop offset=".739560001" stop-color="#fefdb9"/><stop offset="1" stop-color="#daab62"/></linearGradient><linearGradient id="c" x1="50%" x2="50%" y1="0%" y2="100%"><stop offset="0" stop-color="#fff"/><stop offset="1" stop-color="#fff2cf"/></linearGradient><g fill="none" fill-rule="evenodd"><path d="m0 0h16v16h-16z" fill="none"/><path d="m7.8.80829038 6.3282032 3.42264973c.0618802.03572656.1118802.08660254.1464102.14641016.0345299.05980762.0535898.12854688.0535898.2v6.84529943c0 .1429063-.0762395.2749571-.2.3464102l-5.9282032 3.4226497c-.12376043.0714531-.27623957.0714531-.4 0l-5.92820323-3.4226497c-.12376043-.0714531-.2-.2035039-.2-.3464102v-6.84529943c0-.14290624.07623957-.27495704.2-.34641016z" fill="url(#a)" stroke="url(#b)" stroke-width="1.2"/><path d="m11.1633267 7.28313253h-3.5631263c-.16833667 0-.30861723.14056225-.30861723.30923695v.77309237c0 .1686747.14028056.30923695.30861723.30923695h2.1743487c.16833667 0 .3086172.14056224.3086172.30923694v.08433735.08433735c0 .52008032-.42084165.92771086-.92585167.92771086h-2.94589178c-.16833668 0-.30861724-.14056226-.30861724-.30923696v-2.95180723c0-.52008032.42084168-.92771084.9258517-.92771084h4.34869739c.1683367 0 .3086172-.14056225.3086172-.30923695v-.77309237c0-.1686747-.1402805-.30923695-.3086172-.30923695h-4.34869739c-1.29058116 0-2.32865731 1.04016064-2.32865731 2.33333333v4.35742977c0 .1686747.14028056.3092369.30861723.3092369h4.58717435c1.16432862 0 2.10420842-.9417671 2.10420842-2.10843373v-1.78514057c-.0280561-.18273092-.1543086-.32329317-.3366733-.32329317z" fill="url(#c)"/></g></svg>